<svg width="101" height="19" fill="none" xmlns="http://www.w3.org/2000/svg"><path d="M13.42 9.454v6.48c-.255.307-.648.64-1.18 1-.53.351-1.216.654-2.055.909-.838.254-1.852.382-3.043.382-1.056 0-2.018-.173-2.886-.517a6.236 6.236 0 01-2.246-1.539c-.622-.673-1.1-1.497-1.438-2.47-.337-.981-.505-2.1-.505-3.358V9.319c0-1.258.16-2.377.483-3.358.33-.98.797-1.808 1.404-2.482A6.009 6.009 0 014.12 1.94c.839-.351 1.77-.527 2.796-.527 1.423 0 2.591.232 3.504.696.914.457 1.61 1.093 2.09 1.91.486.808.785 1.736.898 2.784H10.14a4.177 4.177 0 00-.472-1.449 2.438 2.438 0 00-1-.965c-.426-.232-.98-.348-1.662-.348a3.19 3.19 0 00-1.505.348 2.977 2.977 0 00-1.1 1c-.3.44-.528.987-.685 1.639-.157.651-.236 1.407-.236 2.268v1.045c0 .853.082 1.61.247 2.268.165.652.408 1.202.73 1.651.33.442.734.775 1.213 1 .48.224 1.037.337 1.673.337.532 0 .974-.045 1.325-.135.36-.09.648-.198.865-.326.225-.134.397-.262.517-.382v-2.897H6.974V9.454h6.446zm9.366-5.01L18.34 18h-3.583l6.076-16.352h2.28l-.326 2.797zM26.481 18L22.022 4.445l-.359-2.797h2.302L30.075 18H26.48zm-.202-6.087v2.64h-8.636v-2.64h8.636zm18.62-10.265V18h-3.37L34.96 7.04V18h-3.37V1.648h3.37l6.581 10.973V1.648h3.358zM52.85 18h-3.56l.023-2.628h3.537c.884 0 1.628-.198 2.235-.595.606-.404 1.063-.992 1.37-1.763.315-.771.472-1.704.472-2.797V9.42c0-.839-.09-1.576-.27-2.212-.172-.637-.43-1.172-.775-1.606a3.241 3.241 0 00-1.269-.977c-.501-.225-1.078-.337-1.73-.337h-3.66v-2.64h3.66c1.094 0 2.093.188 3 .562a6.763 6.763 0 012.369 1.583 7.08 7.08 0 011.538 2.471c.367.951.55 2.01.55 3.178v.775c0 1.16-.183 2.22-.55 3.178a7.08 7.08 0 01-1.538 2.471 6.83 6.83 0 01-2.37 1.584c-.913.367-1.924.55-3.032.55zM51.2 1.648V18h-3.37V1.648h3.37zm15.172 0V18h-3.358V1.648h3.358zm9.523 12.994c0-.232-.067-.442-.202-.629s-.386-.36-.753-.516c-.359-.165-.88-.315-1.56-.45a12.19 12.19 0 01-1.719-.505c-.524-.21-.98-.46-1.37-.752a3.271 3.271 0 01-.898-1.034 2.873 2.873 0 01-.326-1.381c0-.51.109-.988.326-1.438a3.69 3.69 0 01.954-1.19c.42-.352.929-.625 1.528-.82.606-.202 1.287-.303 2.043-.303 1.056 0 1.962.168 2.718.505.764.337 1.348.802 1.752 1.393.412.584.618 1.25.618 1.999h-3.234a1.73 1.73 0 00-.203-.842 1.334 1.334 0 00-.606-.595c-.27-.15-.621-.225-1.056-.225-.36 0-.67.064-.932.19a1.43 1.43 0 00-.606.495 1.188 1.188 0 00-.203.674c0 .187.038.355.113.505.082.142.213.273.393.393.18.12.412.232.696.337.292.098.651.187 1.078.27.876.18 1.659.415 2.347.707.69.285 1.236.674 1.64 1.168.404.487.607 1.127.607 1.92a3.1 3.1 0 01-.36 1.483 3.59 3.59 0 01-1.033 1.18c-.45.329-.988.587-1.617.774-.622.18-1.322.27-2.1.27-1.13 0-2.09-.203-2.875-.607-.779-.404-1.37-.917-1.775-1.538-.397-.63-.595-1.273-.595-1.932h3.066c.015.442.127.797.337 1.067.217.27.49.464.82.584.337.12.7.18 1.09.18.418 0 .766-.057 1.043-.169.278-.12.487-.277.63-.472a1.14 1.14 0 00.224-.696zM81.14.75h3.234v14.465L84.048 18H81.14V.75zM92.067 11.8v.237a9.99 9.99 0 01-.292 2.493c-.187.756-.48 1.411-.876 1.965a4.197 4.197 0 01-1.483 1.28c-.584.3-1.272.45-2.066.45-.741 0-1.385-.15-1.931-.45a3.92 3.92 0 01-1.36-1.269 7.209 7.209 0 01-.887-1.92 14.616 14.616 0 01-.505-2.403v-.517c.112-.869.28-1.67.505-2.403a7.21 7.21 0 01.888-1.92 3.92 3.92 0 011.358-1.27c.54-.3 1.176-.449 1.91-.449.8 0 1.497.154 2.088.46a3.94 3.94 0 011.483 1.28c.397.547.689 1.199.876 1.955.195.748.292 1.576.292 2.482zm-3.234.237V11.8c0-.494-.038-.959-.113-1.393a3.683 3.683 0 00-.36-1.157 2.033 2.033 0 00-.707-.797c-.292-.195-.67-.292-1.134-.292-.442 0-.816.075-1.123.225a2.08 2.08 0 00-.764.629c-.194.27-.34.591-.438.965a5.905 5.905 0 00-.18 1.213v1.471c.023.592.12 1.116.293 1.573.18.449.449.805.808 1.067.367.254.843.382 1.427.382.456 0 .834-.09 1.134-.27.3-.18.531-.434.696-.764a3.68 3.68 0 00.36-1.156 9.86 9.86 0 00.1-1.46zm8.478-3.538V18h-3.234V5.849h3.044l.19 2.65zm3.662-2.729l-.056 2.999a7.906 7.906 0 00-.573-.057 5.827 5.827 0 00-.595-.033c-.457 0-.854.06-1.19.18-.33.112-.607.28-.832.505a2.206 2.206 0 00-.494.82 4.03 4.03 0 00-.18 1.1l-.651-.202c0-.786.079-1.509.236-2.167a5.993 5.993 0 01.685-1.741 3.428 3.428 0 011.123-1.146c.442-.27.947-.404 1.516-.404.18 0 .363.015.55.045.187.022.341.056.461.101z" fill="#fff"/></svg>